<svg width="180" height="180" viewBox="0 0 180 180" fill="none" xmlns="http://www.w3.org/2000/svg">
<g clip-path="url(#clip0_9170_2)">
<rect width="180" height="180" fill="#F4F4F4"/>
<g filter="url(#filter0_dd_9170_2)">
<path d="M23.776 150.518C22.8281 145.564 22.658 142.739 23.776 137.511L99.8789 25.1134C100.707 23.9327 101.152 22.8915 101.534 21.8781C102.123 20.3169 103.389 18.8216 104.845 16.9839C106.168 15.5649 106.47 14.8636 108.984 13.7321C110.962 12.409 115.876 11.5366 117.262 11.2932C118.357 11.101 124.151 12.1307 127.195 13.7321C128.114 12.4244 129.492 10.9048 130.506 9.66734C131.754 8.00082 132.782 7.13709 134.645 5.60259C137.079 4.34454 139.344 5.27986 141.99 6.37213L142.095 6.41555C145.762 8.20135 147.791 9.30765 151.201 12.1062C154.077 14.8627 155.286 15.8652 154.512 19.4227L148.717 28.3652C149.939 29.2151 150.451 29.7615 151.201 30.804C153.373 33.2818 156.872 40.1643 156.995 41.3724C157.059 42.0017 156.545 49.2778 153.684 52.7537L77.581 166.777C75.8654 169.684 74.6077 171.12 71.7866 173.28C63.3818 175.072 58.6695 176.026 50.2646 173.28L32.8815 162.712C26.7034 159.003 25.0346 156.203 23.776 150.518Z" fill="#0095FF"/>
<path d="M153.684 52.7537L77.581 166.777C75.8654 169.684 74.6077 171.12 71.7866 173.28C63.3818 175.072 58.6695 176.026 50.2646 173.28L32.8815 162.712C26.7034 159.003 25.0346 156.203 23.776 150.518C22.8281 145.564 22.658 142.739 23.776 137.511L99.8789 25.1134C100.707 23.9327 101.152 22.8915 101.534 21.8781M153.684 52.7537C156.545 49.2778 157.059 42.0017 156.995 41.3724C156.872 40.1643 153.373 33.2818 151.201 30.804C150.451 29.7615 149.939 29.2151 148.717 28.3652M153.684 52.7537C147.17 53.3004 143.275 53.1275 135.473 51.1277C127.738 49.5766 123.532 48.136 116.434 43.8112C111.359 39.9325 108.866 37.5295 105.673 32.4299C103.067 28.1216 102.29 25.8358 101.534 21.8781M148.717 28.3652L154.512 19.4227M148.717 28.3652L143.751 34.8688L138.784 41.3724C136.831 42.3404 135.546 42.6869 132.162 42.1853C125.131 40.2679 123.173 39.8395 119.745 34.8688C118.548 32.3291 117.804 30.0919 118.918 27.5522L127.195 13.7321M154.512 19.4227C155.286 15.8652 154.077 14.8627 151.201 12.1062C147.791 9.30765 145.762 8.20135 142.095 6.41555C139.404 5.30499 137.111 4.3279 134.645 5.60259M154.512 19.4227C152.103 19.885 149.884 20.777 147.062 19.4227C142.559 16.6518 140.234 14.8303 136.301 11.2932C135.094 9.5205 134.275 7.61107 134.645 5.60259M134.645 5.60259C132.782 7.13709 131.754 8.00082 130.506 9.66734C129.492 10.9048 128.114 12.4244 127.195 13.7321M127.195 13.7321C124.151 12.1307 118.357 11.101 117.262 11.2932C115.876 11.5366 110.962 12.409 108.984 13.7321C106.47 14.8636 106.168 15.5649 104.845 16.9839C103.389 18.8216 102.123 20.3169 101.534 21.8781" stroke="#F8F8F8" stroke-width="8"/>
</g>
</g>
<defs>
<filter id="filter0_dd_9170_2" x="11" y="-6.99573" width="162" height="197.996" filterUnits="userSpaceOnUse" color-interpolation-filters="sRGB">
<feFlood flood-opacity="0" result="BackgroundImageFix"/>
<feColorMatrix in="SourceAlpha" type="matrix" values="0 0 0 0 0 0 0 0 0 0 0 0 0 0 0 0 0 0 127 0" result="hardAlpha"/>
<feOffset dx="4" dy="4"/>
<feGaussianBlur stdDeviation="4"/>
<feComposite in2="hardAlpha" operator="out"/>
<feColorMatrix type="matrix" values="0 0 0 0 0 0 0 0 0 0 0 0 0 0 0 0 0 0 0.15 0"/>
<feBlend mode="normal" in2="BackgroundImageFix" result="effect1_dropShadow_9170_2"/>
<feColorMatrix in="SourceAlpha" type="matrix" values="0 0 0 0 0 0 0 0 0 0 0 0 0 0 0 0 0 0 127 0" result="hardAlpha"/>
<feOffset/>
<feGaussianBlur stdDeviation="4"/>
<feComposite in2="hardAlpha" operator="out"/>
<feColorMatrix type="matrix" values="0 0 0 0 0 0 0 0 0 0 0 0 0 0 0 0 0 0 0.05 0"/>
<feBlend mode="normal" in2="effect1_dropShadow_9170_2" result="effect2_dropShadow_9170_2"/>
<feBlend mode="normal" in="SourceGraphic" in2="effect2_dropShadow_9170_2" result="shape"/>
</filter>
<clipPath id="clip0_9170_2">
<rect width="180" height="180" fill="white"/>
</clipPath>
</defs>
</svg>
