<svg width="32" height="32" viewBox="0 0 32 32" fill="none" xmlns="http://www.w3.org/2000/svg">
<g clip-path="url(#clip0_9170_2)">
<rect width="32" height="32" fill="#F4F4F4"/>
<g filter="url(#filter0_dd_9170_2)">
<path d="M5.1332 26.8236C4.9705 25.9786 4.9413 25.4966 5.1332 24.6048L18.1956 5.43111C18.3378 5.2297 18.4142 5.05208 18.4798 4.8792C18.5808 4.61289 18.7982 4.35781 19.0481 4.04431C19.2751 3.80224 19.3269 3.68261 19.7585 3.48959C20.098 3.26389 20.9413 3.11506 21.1793 3.07355C21.3673 3.04077 22.3618 3.21642 22.8843 3.48959C23.0419 3.26651 23.2785 3.00728 23.4526 2.79619C23.6667 2.5119 23.8432 2.36456 24.163 2.10279C24.5807 1.88819 24.9695 2.04774 25.4236 2.23407L25.4417 2.24148C26.071 2.54611 26.4193 2.73483 27.0046 3.21223C27.4983 3.68246 27.7058 3.85348 27.5729 4.46035L26.5783 5.98582C26.788 6.13081 26.876 6.22402 27.0046 6.40186C27.3775 6.82454 27.978 7.99862 27.9991 8.2047C28.0101 8.31205 27.922 9.55327 27.4308 10.1462L14.3684 29.5972C14.0739 30.0932 13.858 30.3381 13.3738 30.7067C11.9312 31.0122 11.1224 31.175 9.67975 30.7067L6.69608 28.9038C5.63566 28.2712 5.34922 27.7934 5.1332 26.8236Z" fill="#0095FF"/>
<path d="M27.4308 10.1462L14.3684 29.5972C14.0739 30.0932 13.858 30.3381 13.3738 30.7067C11.9312 31.0122 11.1224 31.175 9.67975 30.7067L6.69608 28.9038C5.63566 28.2712 5.34922 27.7934 5.1332 26.8236C4.9705 25.9786 4.9413 25.4966 5.1332 24.6048L18.1956 5.43111C18.3378 5.2297 18.4142 5.05208 18.4798 4.8792M27.4308 10.1462C27.922 9.55327 28.0101 8.31205 27.9991 8.2047C27.978 7.99862 27.3775 6.82454 27.0046 6.40186C26.876 6.22402 26.788 6.13081 26.5783 5.98582M27.4308 10.1462C26.3127 10.2395 25.6443 10.21 24.3051 9.86885C22.9774 9.60424 22.2556 9.35849 21.0372 8.62073C20.1661 7.95908 19.7383 7.54915 19.1902 6.67922C18.7429 5.94427 18.6095 5.55435 18.4798 4.8792M26.5783 5.98582L27.5729 4.46035M26.5783 5.98582L25.7259 7.09526L24.8734 8.2047C24.5382 8.36984 24.3175 8.42894 23.7367 8.34337C22.5299 8.01629 22.1939 7.94321 21.6055 7.09526C21.4 6.66202 21.2724 6.28038 21.4635 5.84714L22.8843 3.48959M27.5729 4.46035C27.7058 3.85348 27.4983 3.68246 27.0046 3.21223C26.4193 2.73483 26.071 2.54611 25.4417 2.24148C24.9798 2.05203 24.5862 1.88535 24.163 2.10279M27.5729 4.46035C27.1595 4.53921 26.7786 4.69138 26.2942 4.46035C25.5213 3.98767 25.1222 3.67693 24.4471 3.07355C24.24 2.77114 24.0995 2.44542 24.163 2.10279M24.163 2.10279C23.8432 2.36456 23.6667 2.5119 23.4526 2.79619C23.2785 3.00728 23.0419 3.26651 22.8843 3.48959M22.8843 3.48959C22.3618 3.21642 21.3673 3.04077 21.1793 3.07355C20.9413 3.11506 20.098 3.26389 19.7585 3.48959C19.3269 3.68261 19.2751 3.80224 19.0481 4.04431C18.7982 4.35781 18.5808 4.61289 18.4798 4.8792" stroke="#F8F8F8" stroke-width="2"/>
</g>
</g>
<defs>
<filter id="filter0_dd_9170_2" x="0" y="-2.99892" width="33" height="38.9989" filterUnits="userSpaceOnUse" color-interpolation-filters="sRGB">
<feFlood flood-opacity="0" result="BackgroundImageFix"/>
<feColorMatrix in="SourceAlpha" type="matrix" values="0 0 0 0 0 0 0 0 0 0 0 0 0 0 0 0 0 0 127 0" result="hardAlpha"/>
<feOffset dx="2" dy="2"/>
<feGaussianBlur stdDeviation="1"/>
<feComposite in2="hardAlpha" operator="out"/>
<feColorMatrix type="matrix" values="0 0 0 0 0 0 0 0 0 0 0 0 0 0 0 0 0 0 0.15 0"/>
<feBlend mode="normal" in2="BackgroundImageFix" result="effect1_dropShadow_9170_2"/>
<feColorMatrix in="SourceAlpha" type="matrix" values="0 0 0 0 0 0 0 0 0 0 0 0 0 0 0 0 0 0 127 0" result="hardAlpha"/>
<feOffset/>
<feGaussianBlur stdDeviation="2"/>
<feComposite in2="hardAlpha" operator="out"/>
<feColorMatrix type="matrix" values="0 0 0 0 0 0 0 0 0 0 0 0 0 0 0 0 0 0 0.05 0"/>
<feBlend mode="normal" in2="effect1_dropShadow_9170_2" result="effect2_dropShadow_9170_2"/>
<feBlend mode="normal" in="SourceGraphic" in2="effect2_dropShadow_9170_2" result="shape"/>
</filter>
<clipPath id="clip0_9170_2">
<rect width="32" height="32" fill="white"/>
</clipPath>
</defs>
</svg>
