<svg width="32" height="32" viewBox="0 0 32 32" fill="none" xmlns="http://www.w3.org/2000/svg">
<g clip-path="url(#clip0_9170_2)">
<g filter="url(#filter0_dd_9170_2)">
<path d="M4.13899 26.6796C3.96922 25.8054 3.93875 25.3069 4.13899 24.3842L17.7694 4.54942C17.9177 4.34107 17.9974 4.15732 18.0659 3.97848C18.1713 3.70299 18.3981 3.43911 18.6589 3.1148C18.8958 2.86439 18.9498 2.74063 19.4002 2.54096C19.7544 2.30748 20.6344 2.15351 20.8828 2.11057C21.0789 2.07665 22.1166 2.25837 22.6618 2.54096C22.8263 2.31019 23.0733 2.04202 23.2549 1.82365C23.4783 1.52956 23.6625 1.37713 23.9961 1.10634C24.432 0.884331 24.8378 1.04939 25.3116 1.24214L25.3305 1.2498C25.9872 1.56494 26.3506 1.76017 26.9613 2.25403C27.4765 2.74047 27.693 2.9174 27.5543 3.54519L26.5165 5.12327C26.7353 5.27325 26.8271 5.36968 26.9613 5.55365C27.3505 5.9909 27.9771 7.20547 27.9991 7.41865C28.0106 7.52971 27.9186 8.81373 27.4061 9.42712L13.7757 29.5489C13.4684 30.0619 13.2432 30.3153 12.7379 30.6966C11.2326 31.0126 10.3886 31.181 8.88322 30.6966L5.76982 28.8316C4.6633 28.1771 4.36441 27.6829 4.13899 26.6796Z" fill="#0095FF"/>
<path d="M27.4061 9.42712L13.7757 29.5489C13.4684 30.0619 13.2432 30.3153 12.7379 30.6966C11.2326 31.0126 10.3886 31.181 8.88322 30.6966L5.76982 28.8316C4.6633 28.1771 4.36441 27.6829 4.13899 26.6796C3.96922 25.8054 3.93875 25.3069 4.13899 24.3842L17.7694 4.54942C17.9177 4.34107 17.9974 4.15732 18.0659 3.97848M27.4061 9.42712C27.9186 8.81373 28.0106 7.52971 27.9991 7.41865C27.9771 7.20547 27.3505 5.9909 26.9613 5.55365C26.8271 5.36968 26.7353 5.27325 26.5165 5.12327M27.4061 9.42712C26.2394 9.52359 25.5418 9.49308 24.1444 9.14019C22.759 8.86645 22.0058 8.61223 20.7345 7.84903C19.8255 7.16457 19.3791 6.7405 18.8072 5.84057C18.3404 5.08028 18.2013 4.67691 18.0659 3.97848M26.5165 5.12327L27.5543 3.54519M26.5165 5.12327L25.627 6.27096L24.7374 7.41865C24.3877 7.58949 24.1574 7.65063 23.5514 7.56211C22.2921 7.22375 21.9414 7.14815 21.3275 6.27096C21.113 5.82278 20.9799 5.42798 21.1793 4.9798L22.6618 2.54096M27.5543 3.54519C27.693 2.9174 27.4765 2.74047 26.9613 2.25403C26.3506 1.76017 25.9872 1.56494 25.3305 1.2498C24.8485 1.05382 24.4378 0.881394 23.9961 1.10634M27.5543 3.54519C27.123 3.62677 26.7255 3.78418 26.22 3.54519C25.4136 3.05621 24.9971 2.73475 24.2927 2.11057C24.0765 1.79773 23.9299 1.46078 23.9961 1.10634M23.9961 1.10634C23.6625 1.37713 23.4783 1.52956 23.2549 1.82365C23.0733 2.04202 22.8263 2.31019 22.6618 2.54096M22.6618 2.54096C22.1166 2.25837 21.0789 2.07665 20.8828 2.11057C20.6344 2.15351 19.7544 2.30748 19.4002 2.54096C18.9498 2.74063 18.8958 2.86439 18.6589 3.1148C18.3981 3.43911 18.1713 3.70299 18.0659 3.97848" stroke="#F8F8F8" stroke-width="2"/>
</g>
</g>
<defs>
<filter id="filter0_dd_9170_2" x="1" y="-1.9989" width="34" height="39.9989" filterUnits="userSpaceOnUse" color-interpolation-filters="sRGB">
<feFlood flood-opacity="0" result="BackgroundImageFix"/>
<feColorMatrix in="SourceAlpha" type="matrix" values="0 0 0 0 0 0 0 0 0 0 0 0 0 0 0 0 0 0 127 0" result="hardAlpha"/>
<feOffset dx="2" dy="2"/>
<feGaussianBlur stdDeviation="2"/>
<feComposite in2="hardAlpha" operator="out"/>
<feColorMatrix type="matrix" values="0 0 0 0 0 0 0 0 0 0 0 0 0 0 0 0 0 0 0.15 0"/>
<feBlend mode="normal" in2="BackgroundImageFix" result="effect1_dropShadow_9170_2"/>
<feColorMatrix in="SourceAlpha" type="matrix" values="0 0 0 0 0 0 0 0 0 0 0 0 0 0 0 0 0 0 127 0" result="hardAlpha"/>
<feOffset/>
<feGaussianBlur stdDeviation="1"/>
<feComposite in2="hardAlpha" operator="out"/>
<feColorMatrix type="matrix" values="0 0 0 0 0 0 0 0 0 0 0 0 0 0 0 0 0 0 0.05 0"/>
<feBlend mode="normal" in2="effect1_dropShadow_9170_2" result="effect2_dropShadow_9170_2"/>
<feBlend mode="normal" in="SourceGraphic" in2="effect2_dropShadow_9170_2" result="shape"/>
</filter>
<clipPath id="clip0_9170_2">
<rect width="32" height="32" fill="white"/>
</clipPath>
</defs>
</svg>
