<svg width="150" height="65" viewBox="0 0 150 65" fill="none" xmlns="http://www.w3.org/2000/svg">
<g filter="url(#filter0_d_9167_23)">
<path d="M96.5275 37.1484C96.5275 37.4974 96.4832 37.8125 96.3947 38.0938C96.3061 38.3698 96.189 38.6146 96.0431 38.8281C95.8973 39.0365 95.728 39.2161 95.5353 39.3672C95.3426 39.513 95.1395 39.6328 94.9259 39.7266C94.7176 39.8203 94.5041 39.8906 94.2853 39.9375C94.0718 39.9792 93.8686 40 93.6759 40H88.1759V37.9688H93.6603C93.9364 37.9688 94.1447 37.8984 94.2853 37.7578C94.4259 37.6172 94.4963 37.4141 94.4963 37.1484C94.4702 36.6068 94.1968 36.3359 93.6759 36.3359H90.5275C90.0796 36.3359 89.6994 36.2578 89.3869 36.1016C89.0744 35.9453 88.8192 35.75 88.6213 35.5156C88.4285 35.2812 88.2879 35.0286 88.1994 34.7578C88.116 34.487 88.0744 34.2344 88.0744 34C88.0744 33.5469 88.1551 33.1667 88.3166 32.8594C88.478 32.5469 88.6811 32.2943 88.9259 32.1016C89.1707 31.9089 89.4364 31.7708 89.7228 31.6875C90.0093 31.599 90.2775 31.5547 90.5275 31.5547H95.5197V33.5859H90.5431C90.439 33.5859 90.3556 33.599 90.2931 33.625C90.2358 33.6458 90.1916 33.6771 90.1603 33.7188C90.1343 33.7552 90.1186 33.7969 90.1134 33.8438C90.1082 33.8854 90.1056 33.9271 90.1056 33.9688C90.1108 34.0521 90.1265 34.1172 90.1525 34.1641C90.1785 34.2109 90.2098 34.2448 90.2463 34.2656C90.2879 34.2865 90.3322 34.2995 90.3791 34.3047C90.4311 34.3047 90.4806 34.3047 90.5275 34.3047H93.6759C94.1968 34.3047 94.6395 34.3984 95.0041 34.5859C95.3686 34.7734 95.6629 35.0104 95.8869 35.2969C96.1108 35.5781 96.2723 35.8854 96.3713 36.2188C96.4754 36.5521 96.5275 36.862 96.5275 37.1484ZM105.763 34.3516C105.763 34.6328 105.714 34.9375 105.615 35.2656C105.516 35.5885 105.354 35.8906 105.13 36.1719C104.912 36.4479 104.623 36.6797 104.263 36.8672C103.909 37.0547 103.477 37.1484 102.966 37.1484H99.3022V35.2188H102.966C103.242 35.2188 103.456 35.1354 103.607 34.9688C103.758 34.7969 103.833 34.5859 103.833 34.3359C103.833 34.0703 103.748 33.862 103.576 33.7109C103.409 33.5599 103.206 33.4844 102.966 33.4844H99.3022C99.0261 33.4844 98.8126 33.5703 98.6616 33.7422C98.5105 33.9089 98.435 34.1172 98.435 34.3672V37.2031C98.435 37.474 98.5183 37.6849 98.685 37.8359C98.8569 37.987 99.0678 38.0625 99.3178 38.0625H102.966V40H99.3022C99.0209 40 98.7163 39.9505 98.3881 39.8516C98.0652 39.7526 97.7631 39.5938 97.4819 39.375C97.2058 39.151 96.9741 38.862 96.7866 38.5078C96.5991 38.1484 96.5053 37.7135 96.5053 37.2031V34.3516C96.5053 34.0703 96.5548 33.7682 96.6538 33.4453C96.7527 33.1172 96.9116 32.8151 97.1303 32.5391C97.3543 32.2578 97.6433 32.0234 97.9975 31.8359C98.3569 31.6484 98.7918 31.5547 99.3022 31.5547H102.966C103.248 31.5547 103.55 31.6042 103.873 31.7031C104.201 31.8021 104.503 31.9635 104.779 32.1875C105.06 32.4062 105.294 32.6953 105.482 33.0547C105.669 33.4089 105.763 33.8411 105.763 34.3516ZM113.241 33.5859H108.671C108.395 33.5859 108.186 33.6562 108.046 33.7969C107.905 33.9323 107.835 34.1328 107.835 34.3984V40H105.803V34.3984C105.803 34.0495 105.848 33.737 105.936 33.4609C106.025 33.1849 106.142 32.9427 106.288 32.7344C106.439 32.5208 106.611 32.3411 106.803 32.1953C106.996 32.0443 107.197 31.9219 107.405 31.8281C107.619 31.7344 107.832 31.6667 108.046 31.625C108.264 31.5781 108.468 31.5547 108.655 31.5547H113.241V33.5859ZM123.383 31.5547C123.154 32.2682 122.885 32.9714 122.578 33.6641C122.271 34.3568 121.917 35.0182 121.516 35.6484C121.12 36.2734 120.674 36.8542 120.18 37.3906C119.69 37.9219 119.146 38.3828 118.547 38.7734C117.953 39.1589 117.305 39.4635 116.602 39.6875C115.904 39.9062 115.146 40.0156 114.328 40.0156C114.188 40.0156 114.055 39.9896 113.93 39.9375C113.805 39.8854 113.695 39.8151 113.602 39.7266C113.508 39.6328 113.435 39.526 113.383 39.4062C113.331 39.2812 113.305 39.1484 113.305 39.0078V31.5547H115.336V37.9062C115.831 37.9062 116.305 37.7995 116.758 37.5859C117.216 37.3724 117.648 37.0911 118.055 36.7422C118.461 36.388 118.836 35.987 119.18 35.5391C119.529 35.0911 119.839 34.6328 120.109 34.1641C120.38 33.6901 120.609 33.2266 120.797 32.7734C120.99 32.3203 121.133 31.9141 121.227 31.5547H123.383ZM124.9 29.8203H122.868V27.9844H124.9V29.8203ZM124.9 40H122.868V31.5547H124.9V40ZM133.752 40H128.245C127.963 40 127.656 39.9505 127.323 39.8516C126.989 39.7526 126.68 39.5911 126.393 39.3672C126.112 39.138 125.875 38.8438 125.682 38.4844C125.495 38.1198 125.401 37.6745 125.401 37.1484V34.3984C125.401 34.2057 125.422 34.0026 125.463 33.7891C125.51 33.5755 125.581 33.3646 125.674 33.1562C125.768 32.9427 125.888 32.7396 126.034 32.5469C126.185 32.3542 126.364 32.1849 126.573 32.0391C126.786 31.8932 127.031 31.776 127.307 31.6875C127.583 31.599 127.896 31.5547 128.245 31.5547H133.752V33.5859H128.245C127.979 33.5859 127.776 33.6536 127.635 33.7891C127.5 33.9245 127.432 34.1328 127.432 34.4141V37.1484C127.432 37.4141 127.502 37.6172 127.643 37.7578C127.784 37.8984 127.989 37.9688 128.26 37.9688H133.752V40ZM143.176 34.3516C143.176 34.6328 143.126 34.9375 143.027 35.2656C142.928 35.5885 142.767 35.8906 142.543 36.1719C142.324 36.4479 142.035 36.6797 141.676 36.8672C141.321 37.0547 140.889 37.1484 140.379 37.1484H136.715V35.2188H140.379C140.655 35.2188 140.868 35.1354 141.019 34.9688C141.17 34.7969 141.246 34.5859 141.246 34.3359C141.246 34.0703 141.16 33.862 140.988 33.7109C140.821 33.5599 140.618 33.4844 140.379 33.4844H136.715C136.439 33.4844 136.225 33.5703 136.074 33.7422C135.923 33.9089 135.847 34.1172 135.847 34.3672V37.2031C135.847 37.474 135.931 37.6849 136.097 37.8359C136.269 37.987 136.48 38.0625 136.73 38.0625H140.379V40H136.715C136.433 40 136.129 39.9505 135.801 39.8516C135.478 39.7526 135.176 39.5938 134.894 39.375C134.618 39.151 134.387 38.862 134.199 38.5078C134.012 38.1484 133.918 37.7135 133.918 37.2031V34.3516C133.918 34.0703 133.967 33.7682 134.066 33.4453C134.165 33.1172 134.324 32.8151 134.543 32.5391C134.767 32.2578 135.056 32.0234 135.41 31.8359C135.769 31.6484 136.204 31.5547 136.715 31.5547H140.379C140.66 31.5547 140.962 31.6042 141.285 31.7031C141.613 31.8021 141.915 31.9635 142.191 32.1875C142.472 32.4062 142.707 32.6953 142.894 33.0547C143.082 33.4089 143.176 33.8411 143.176 34.3516Z" fill="white"/>
</g>
<g filter="url(#filter1_d_9167_23)">
<path d="M67.8125 29.8438C67.8125 30.5391 67.7266 31.1602 67.5547 31.707C67.3828 32.2539 67.1484 32.7383 66.8516 33.1602C66.5625 33.5742 66.2266 33.9297 65.8438 34.2266C65.4609 34.5234 65.0586 34.7695 64.6367 34.9648C64.2227 35.1523 63.8008 35.2891 63.3711 35.375C62.9492 35.4609 62.5508 35.5039 62.1758 35.5039L68.5391 41H63.8281L57.4766 35.5039H55.2852V32.457H62.1758C62.5586 32.4258 62.9062 32.3477 63.2188 32.2227C63.5391 32.0898 63.8125 31.9141 64.0391 31.6953C64.2734 31.4766 64.4531 31.2148 64.5781 30.9102C64.7031 30.5977 64.7656 30.2422 64.7656 29.8438V27.9219C64.7656 27.75 64.7422 27.6211 64.6953 27.5352C64.6562 27.4414 64.6016 27.375 64.5312 27.3359C64.4688 27.2891 64.3984 27.2617 64.3203 27.2539C64.25 27.2461 64.1836 27.2422 64.1211 27.2422H54.0664V41H51.0195V25.7305C51.0195 25.5195 51.0586 25.3203 51.1367 25.1328C51.2148 24.9453 51.3203 24.7812 51.4531 24.6406C51.5938 24.5 51.7578 24.3906 51.9453 24.3125C52.1328 24.2344 52.3359 24.1953 52.5547 24.1953H64.1211C64.8008 24.1953 65.375 24.3203 65.8438 24.5703C66.3125 24.8125 66.6914 25.1211 66.9805 25.4961C67.2773 25.8633 67.4883 26.2617 67.6133 26.6914C67.7461 27.1211 67.8125 27.5234 67.8125 27.8984V29.8438ZM88.5078 34.2031C88.5078 35.2266 88.332 36.168 87.9805 37.0273C87.6289 37.8867 87.1406 38.6289 86.5156 39.2539C85.8906 39.8789 85.1484 40.3672 84.2891 40.7188C83.4375 41.0625 82.5078 41.2344 81.5 41.2344H77.375C76.3672 41.2344 75.4336 41.0625 74.5742 40.7188C73.7148 40.3672 72.9727 39.8789 72.3477 39.2539C71.7227 38.6289 71.2305 37.8867 70.8711 37.0273C70.5195 36.168 70.3438 35.2266 70.3438 34.2031V30.9922C70.3438 29.9766 70.5195 29.0391 70.8711 28.1797C71.2305 27.3125 71.7227 26.5703 72.3477 25.9531C72.9727 25.3281 73.7148 24.8398 74.5742 24.4883C75.4336 24.1367 76.3672 23.9609 77.375 23.9609H81.5C82.5078 23.9609 83.4375 24.1367 84.2891 24.4883C85.1484 24.8398 85.8906 25.3281 86.5156 25.9531C87.1406 26.5703 87.6289 27.3125 87.9805 28.1797C88.332 29.0391 88.5078 29.9766 88.5078 30.9922V34.2031ZM85.4609 30.9922C85.4609 30.3906 85.3633 29.8477 85.168 29.3633C84.9805 28.8711 84.7109 28.4531 84.3594 28.1094C84.0156 27.7578 83.5977 27.4883 83.1055 27.3008C82.6211 27.1055 82.0859 27.0078 81.5 27.0078H77.375C76.7812 27.0078 76.2383 27.1055 75.7461 27.3008C75.2617 27.4883 74.8438 27.7578 74.4922 28.1094C74.1406 28.4531 73.8672 28.8711 73.6719 29.3633C73.4844 29.8477 73.3906 30.3906 73.3906 30.9922V34.2031C73.3906 34.8047 73.4844 35.3516 73.6719 35.8438C73.8672 36.3281 74.1406 36.7461 74.4922 37.0977C74.8438 37.4414 75.2617 37.7109 75.7461 37.9062C76.2383 38.0938 76.7812 38.1875 77.375 38.1875H81.4766C82.0703 38.1875 82.6094 38.0938 83.0938 37.9062C83.5859 37.7109 84.0078 37.4414 84.3594 37.0977C84.7109 36.7461 84.9805 36.3281 85.168 35.8438C85.3633 35.3516 85.4609 34.8047 85.4609 34.2031V30.9922Z" fill="white"/>
</g>
<g filter="url(#filter2_d_9167_23)">
<path d="M5.23744 48.5114C4.94741 46.9961 4.89536 46.1319 5.23744 44.5327L28.5226 10.1523C28.776 9.79118 28.9123 9.4727 29.0292 9.1627C29.2093 8.68518 29.5967 8.22779 30.0423 7.66566C30.4469 7.23161 30.5392 7.01709 31.3086 6.67099C31.9138 6.26629 33.4172 5.99942 33.8414 5.92499C34.1765 5.8662 35.9492 6.18117 36.8806 6.67099C37.1617 6.27099 37.5835 5.80616 37.8937 5.42766C38.2753 4.9179 38.5901 4.6537 39.1601 4.18432C39.9047 3.79951 40.5979 4.0856 41.4074 4.41971L41.4395 4.43299C42.5614 4.97924 43.1822 5.31763 44.2255 6.17366C45.1057 7.01682 45.4756 7.32349 45.2386 8.41166L43.4657 11.147C43.8394 11.407 43.9963 11.5741 44.2255 11.893C44.8904 12.6509 45.9608 14.7561 45.9984 15.1257C46.0181 15.3182 45.8609 17.5438 44.9854 18.607L21.7002 53.4847C21.1752 54.374 20.7904 54.8131 19.9273 55.474C17.3556 56.0219 15.9138 56.3137 13.3422 55.474L8.02344 52.2414C6.13313 51.1069 5.62253 50.2503 5.23744 48.5114Z" fill="#0095FF"/>
<path d="M44.9854 18.607L21.7002 53.4847C21.1752 54.374 20.7904 54.8131 19.9273 55.474C17.3556 56.0219 15.9138 56.3137 13.3422 55.474L8.02344 52.2414C6.13313 51.1069 5.62253 50.2503 5.23744 48.5114C4.94741 46.9961 4.89536 46.1319 5.23744 44.5327L28.5226 10.1523C28.776 9.79118 28.9123 9.4727 29.0292 9.1627M44.9854 18.607C45.8609 17.5438 46.0181 15.3182 45.9984 15.1257C45.9608 14.7561 44.8904 12.6509 44.2255 11.893C43.9963 11.5741 43.8394 11.407 43.4657 11.147M44.9854 18.607C42.9923 18.7742 41.8006 18.7213 39.4134 18.1097C37.0467 17.6352 35.7599 17.1945 33.5881 15.8717C32.0353 14.6852 31.2726 13.9502 30.2955 12.3903C29.4981 11.0725 29.2605 10.3733 29.0292 9.1627M43.4657 11.147L45.2386 8.41166M43.4657 11.147L41.9461 13.1363L40.4265 15.1257C39.829 15.4218 39.4356 15.5278 38.4003 15.3743C36.249 14.7878 35.6499 14.6568 34.6012 13.1363C34.2348 12.3595 34.0073 11.6752 34.3479 10.8983L36.8806 6.67099M45.2386 8.41166C45.4756 7.32349 45.1057 7.01682 44.2255 6.17366C43.1822 5.31763 42.5614 4.97924 41.4395 4.43299C40.6162 4.09329 39.9146 3.79442 39.1601 4.18432M45.2386 8.41166C44.5017 8.55306 43.8227 8.82591 42.9592 8.41166C41.5815 7.56409 40.8701 7.0069 39.6666 5.92499C39.2974 5.38274 39.047 4.79868 39.1601 4.18432M39.1601 4.18432C38.5901 4.6537 38.2753 4.9179 37.8937 5.42766C37.5835 5.80616 37.1617 6.27099 36.8806 6.67099M36.8806 6.67099C35.9492 6.18117 34.1765 5.8662 33.8414 5.92499C33.4172 5.99942 31.9138 6.26629 31.3086 6.67099C30.5392 7.01709 30.4469 7.23161 30.0423 7.66566C29.5967 8.22779 29.2093 8.68518 29.0292 9.1627" stroke="#F8F8F8" stroke-width="2"/>
</g>
<defs>
<filter id="filter0_d_9167_23" x="86.0744" y="25.9844" width="63.1013" height="20.0312" filterUnits="userSpaceOnUse" color-interpolation-filters="sRGB">
<feFlood flood-opacity="0" result="BackgroundImageFix"/>
<feColorMatrix in="SourceAlpha" type="matrix" values="0 0 0 0 0 0 0 0 0 0 0 0 0 0 0 0 0 0 127 0" result="hardAlpha"/>
<feOffset dx="2" dy="2"/>
<feGaussianBlur stdDeviation="2"/>
<feComposite in2="hardAlpha" operator="out"/>
<feColorMatrix type="matrix" values="0 0 0 0 1 0 0 0 0 1 0 0 0 0 1 0 0 0 0.25 0"/>
<feBlend mode="normal" in2="BackgroundImageFix" result="effect1_dropShadow_9167_23"/>
<feBlend mode="normal" in="SourceGraphic" in2="effect1_dropShadow_9167_23" result="shape"/>
</filter>
<filter id="filter1_d_9167_23" x="49.0195" y="21.9609" width="45.4883" height="25.2734" filterUnits="userSpaceOnUse" color-interpolation-filters="sRGB">
<feFlood flood-opacity="0" result="BackgroundImageFix"/>
<feColorMatrix in="SourceAlpha" type="matrix" values="0 0 0 0 0 0 0 0 0 0 0 0 0 0 0 0 0 0 127 0" result="hardAlpha"/>
<feOffset dx="2" dy="2"/>
<feGaussianBlur stdDeviation="2"/>
<feComposite in2="hardAlpha" operator="out"/>
<feColorMatrix type="matrix" values="0 0 0 0 1 0 0 0 0 1 0 0 0 0 1 0 0 0 0.25 0"/>
<feBlend mode="normal" in2="BackgroundImageFix" result="effect1_dropShadow_9167_23"/>
<feBlend mode="normal" in="SourceGraphic" in2="effect1_dropShadow_9167_23" result="shape"/>
</filter>
<filter id="filter2_d_9167_23" x="2" y="1.00107" width="51" height="61.9989" filterUnits="userSpaceOnUse" color-interpolation-filters="sRGB">
<feFlood flood-opacity="0" result="BackgroundImageFix"/>
<feColorMatrix in="SourceAlpha" type="matrix" values="0 0 0 0 0 0 0 0 0 0 0 0 0 0 0 0 0 0 127 0" result="hardAlpha"/>
<feOffset dx="2" dy="2"/>
<feGaussianBlur stdDeviation="2"/>
<feComposite in2="hardAlpha" operator="out"/>
<feColorMatrix type="matrix" values="0 0 0 0 1 0 0 0 0 1 0 0 0 0 1 0 0 0 0.25 0"/>
<feBlend mode="normal" in2="BackgroundImageFix" result="effect1_dropShadow_9167_23"/>
<feBlend mode="normal" in="SourceGraphic" in2="effect1_dropShadow_9167_23" result="shape"/>
</filter>
</defs>
</svg>
