<svg width="512" height="512" viewBox="0 0 512 512" fill="none" xmlns="http://www.w3.org/2000/svg">
<g clip-path="url(#clip0_9170_23)">
<path d="M249 156C251.069 157.949 253.041 159.938 255 162C257.921 160.699 259.72 159.398 261.812 157C278.241 140.112 302.702 132.209 325.75 131.688C348.576 131.8 370.949 139.66 388 155C388.478 155.429 388.956 155.858 389.449 156.3C408.511 173.653 418.523 196.688 420.223 222.363C421.207 259.455 400.915 291.375 377 318C376.532 318.53 376.063 319.06 375.581 319.606C364.697 331.916 352.786 343.465 339.91 353.68C337.639 355.49 335.406 357.327 333.184 359.195C323.122 367.637 312.737 375.442 302 383C300.338 384.179 298.677 385.359 297.016 386.539C287.14 393.527 277.177 400.367 266.912 406.774C265.557 407.643 264.226 408.552 262.916 409.488C257.685 413.11 257.685 413.11 254.457 412.59C253.646 412.065 252.835 411.541 252 411C250.869 410.341 249.739 409.683 248.574 409.004C247.275 408.195 245.98 407.381 244.687 406.562C243.987 406.121 243.287 405.68 242.566 405.226C234.899 400.358 227.438 395.208 220 390C218.557 388.996 217.115 387.992 215.672 386.988C201.928 377.391 188.812 367.124 175.847 356.506C174.178 355.146 172.502 353.796 170.82 352.453C165.894 348.496 161.295 344.433 156.895 339.898C155 338 153.035 336.246 151 334.5C144.086 328.534 137.874 321.981 132 315C131.317 314.204 131.317 314.204 130.621 313.392C106.746 285.464 89.5256 253.322 92.2422 215.641C94.3978 196.548 102.137 178.297 115 164C115.429 163.522 115.858 163.044 116.3 162.551C130.595 146.848 149.02 136.658 170 133C171.258 132.773 172.516 132.546 173.812 132.312C201.706 129.57 227.838 137.427 249 156Z" fill="#0095FF"/>
<path d="M243.793 -0.203125C244.693 -0.210139 245.594 -0.217154 246.522 -0.22438C249.41 -0.241779 252.299 -0.248232 255.187 -0.25C256.175 -0.250675 257.162 -0.251349 258.179 -0.252045C272.668 -0.236299 286.744 0.206999 301 3C301.913 3.16629 302.826 3.33258 303.767 3.50391C352.937 12.5506 398.122 36.3438 434 71C434.621 71.5989 435.242 72.1979 435.881 72.8149C443.782 80.4788 451.328 88.22 458 97C458.417 97.5403 458.833 98.0806 459.263 98.6372C466.946 108.632 473.688 119.092 480 130C480.394 130.677 480.789 131.354 481.195 132.052C496.103 157.971 505.661 187.464 510 217C510.177 218.205 510.355 219.409 510.537 220.65C512.136 232.308 512.358 243.872 512.312 255.625C512.31 257.079 512.31 257.079 512.307 258.563C512.262 272.895 511.843 286.909 509 301C508.823 301.902 508.646 302.804 508.464 303.733C507.165 310.206 505.658 316.61 504 323C503.785 323.831 503.57 324.661 503.349 325.517C493.088 364.207 472.875 397.813 447 428C454.92 428.33 462.84 428.66 471 429C471 439.23 471 449.46 471 460C444.27 460 417.54 460 390 460C391.153 433.484 391.153 433.484 391.937 423.082C392.065 421.347 392.065 421.347 392.195 419.577C392.371 417.189 392.55 414.801 392.729 412.413C393.005 408.751 393.272 405.087 393.539 401.424C393.713 399.081 393.888 396.738 394.062 394.395C394.181 392.762 394.181 392.762 394.302 391.096C394.418 389.587 394.418 389.587 394.535 388.046C394.601 387.165 394.667 386.284 394.735 385.376C394.981 383.169 395.403 381.136 396 379C399.292 379.141 402.583 379.289 405.875 379.438C407.252 379.496 407.252 379.496 408.656 379.557C409.571 379.599 410.487 379.64 411.43 379.684C412.257 379.72 413.084 379.757 413.937 379.795C418.3 380.087 422.649 380.565 427 381C426.67 388.26 426.34 395.52 426 403C463.161 365.199 481.63 306.454 481.232 254.221C480.719 229.224 476.531 204.529 468 181C467.707 180.193 467.415 179.385 467.114 178.553C457.935 153.652 444.732 129.87 427 110C426.129 109.02 425.257 108.041 424.359 107.031C421.616 103.979 418.816 100.985 416 98C415.198 97.1441 414.396 96.2881 413.57 95.4062C406.925 88.521 399.632 82.7309 392 77C391.181 76.3738 391.181 76.3738 390.345 75.7349C361.532 53.7698 327.527 40.2904 292 34C290.813 33.786 289.626 33.572 288.402 33.3516C251.625 27.6298 215.545 32.7188 180.492 44.2156C178.339 44.8933 176.196 45.4823 174 46C172.405 42.0529 170.821 38.1019 169.245 34.147C168.708 32.8015 168.167 31.457 167.624 30.1138C166.845 28.1854 166.076 26.2534 165.309 24.3203C164.842 23.1577 164.376 21.9952 163.896 20.7974C163 18 163 18 164 16C165.724 15.2097 165.724 15.2097 167.988 14.4492C169.25 14.0233 169.25 14.0233 170.538 13.5889C171.453 13.2914 172.369 12.994 173.312 12.6875C174.257 12.3784 175.201 12.0694 176.173 11.751C198.059 4.71678 220.731 -0.0821292 243.793 -0.203125Z" fill="#0095FF"/>
<path d="M41 52C67.73 52 94.46 52 122 52C120.847 78.5159 120.847 78.5159 120.062 88.918C119.977 90.0745 119.892 91.2311 119.805 92.4227C119.628 94.8108 119.45 97.1988 119.27 99.5867C118.995 103.249 118.728 106.913 118.461 110.576C118.287 112.919 118.112 115.262 117.937 117.605C117.819 119.238 117.819 119.238 117.697 120.904C117.621 121.91 117.544 122.917 117.465 123.954C117.366 125.275 117.366 125.275 117.265 126.624C117.019 128.831 116.597 130.864 116 133C95.0683 132.036 95.0683 132.036 85 131C85.33 123.74 85.66 116.48 86 109C48.8393 146.801 30.3703 205.546 30.7678 257.779C31.2813 282.776 35.4686 307.471 44 331C44.4387 332.211 44.4387 332.211 44.8862 333.447C54.0645 358.348 67.2676 382.13 85 402C86.3071 403.47 86.3071 403.47 87.6406 404.969C90.3843 408.021 93.1835 411.015 96 414C96.8018 414.856 97.6036 415.712 98.4297 416.594C105.075 423.479 112.368 429.269 120 435C120.819 435.626 120.819 435.626 121.655 436.265C167.938 471.548 228.509 486.552 286 479C301.786 476.698 316.882 472.924 331.939 467.677C333.944 467.019 335.947 466.485 338 466C339.595 469.947 341.179 473.898 342.755 477.853C343.292 479.199 343.833 480.543 344.376 481.886C345.155 483.815 345.924 485.747 346.691 487.68C347.157 488.842 347.624 490.005 348.104 491.203C349 494 349 494 348 496C335.871 501.659 322.095 504.675 309.062 507.375C307.917 507.613 306.771 507.851 305.591 508.097C289.132 511.343 273.116 512.378 256.375 512.312C255.405 512.311 254.436 512.309 253.437 512.307C239.108 512.262 225.088 511.852 211 509C210.082 508.818 209.164 508.636 208.219 508.448C201.767 507.136 195.377 505.634 189 504C187.884 503.718 187.884 503.718 186.745 503.431C168.295 498.681 150.815 490.855 134 482C133.078 481.535 132.157 481.069 131.207 480.59C111.518 470.373 93.8963 456.355 78 441C77.0687 440.102 77.0687 440.102 76.1186 439.185C68.2175 431.521 60.6723 423.78 54 415C53.5833 414.46 53.1666 413.919 52.7373 413.363C21.2713 372.429 0.0700954 320.289 -0.203156 268.207C-0.213677 266.856 -0.213677 266.856 -0.224411 265.478C-0.241809 262.589 -0.248263 259.701 -0.250031 256.812C-0.251043 255.332 -0.251043 255.332 -0.252075 253.821C-0.236343 239.35 0.128969 225.23 2.99997 211C3.17689 210.098 3.35382 209.196 3.5361 208.267C4.83498 201.794 6.34654 195.391 7.99997 189C8.2096 188.18 8.41924 187.36 8.63522 186.515C18.754 147.824 39.1749 114.129 65 84C57.08 83.67 49.16 83.34 41 83C41 72.77 41 62.54 41 52Z" fill="#0095FF"/>
</g>
<defs>
<clipPath id="clip0_9170_23">
<rect width="512" height="512" fill="white"/>
</clipPath>
</defs>
</svg>
