<svg width="512" height="512" viewBox="0 0 512 512" fill="none" xmlns="http://www.w3.org/2000/svg">
<g clip-path="url(#clip0_9170_8)">
<path d="M91 80C94.758 80.7516 97.7637 81.6393 101.261 83.0698C128.768 94.2074 158.55 91.9371 186 82C187.999 81.33 189.999 80.6629 192 80C192.28 88.1022 192.492 96.2024 192.622 104.308C192.684 108.074 192.768 111.836 192.905 115.6C193.889 143.286 193.889 143.286 187.837 151.006C185.388 153.584 182.767 155.765 180 158C176.817 161.939 174.321 165.3 173.375 170.312C174.162 173.695 175.238 174.929 178 177C179.843 178.086 179.843 178.086 182 178C187.114 175.974 189.519 173.5 192.688 169.062C196.952 163.246 201.562 157.951 206.492 152.695C208.507 150.53 210.421 148.334 212.312 146.062C226.455 129.88 248.392 109.869 269 103C271.465 103.732 273.795 104.518 276.188 105.438C277.169 105.802 277.169 105.802 278.17 106.174C279.783 106.774 281.392 107.386 283 108C278.054 113.911 272.882 119.431 267.125 124.562C264.557 127.508 263.919 129.096 264 133C265.686 135.81 266.97 137.502 269.938 138.938C274.72 139.082 277.89 136.471 281.25 133.318C281.766 132.821 282.281 132.324 282.812 131.812C283.363 131.296 283.913 130.779 284.48 130.247C287.759 127.163 290.996 124.037 294.23 120.906C294.94 120.226 295.65 119.545 296.382 118.844C297.773 117.51 299.156 116.166 300.531 114.814C301.17 114.201 301.81 113.588 302.469 112.957C303.03 112.41 303.592 111.863 304.17 111.3C306.403 109.713 308.311 109.372 311 109C311.02 109.847 311.04 110.694 311.06 111.567C311.138 114.732 311.225 117.896 311.317 121.061C311.355 122.426 311.39 123.792 311.422 125.157C311.468 127.128 311.527 129.099 311.586 131.07C311.617 132.254 311.649 133.437 311.681 134.657C312.004 138.044 312.796 140.829 314 144C319.228 144.992 319.228 144.992 324.375 144.312C326.427 142.655 327.031 141.467 328 139C328.367 135.708 328.367 135.708 328.414 132.047C328.443 131.057 328.443 131.057 328.473 130.046C328.532 127.948 328.579 125.849 328.625 123.75C328.663 122.323 328.702 120.896 328.742 119.469C328.838 115.979 328.922 112.49 329 109C333.175 109.702 334.928 110.479 337.812 113.625C340.465 116.422 343.132 119.058 346.062 121.562C348.672 123.805 351.151 126.108 353.562 128.562C359.387 134.733 359.387 134.733 366.562 139C369.681 139 372.117 138.14 375 137C375.371 135.206 375.371 135.206 375.75 133.375C375.889 132.702 376.028 132.029 376.172 131.336C375.726 125.277 370.247 121.119 365.938 117.375C362.621 114.467 359.494 111.676 357 108C359.078 107.132 361.162 106.281 363.25 105.438C364.41 104.962 365.57 104.486 366.766 103.996C371.042 102.679 371.042 102.679 374 104C376.364 105.261 378.649 106.552 380.938 107.938C381.598 108.336 382.259 108.735 382.94 109.146C389.682 113.297 395.846 118.034 402 123C402.888 123.695 403.776 124.39 404.691 125.105C410.447 129.677 415.871 134.556 421.25 139.562C421.912 140.176 422.573 140.789 423.255 141.421C427.81 145.707 431.946 150.241 436 155C437.303 156.481 437.303 156.481 438.633 157.992C451.49 172.864 462.316 188.908 472 206C472.439 206.774 472.879 207.548 473.332 208.346C489.873 237.827 501.378 270.886 508 304C508.209 305.025 508.418 306.05 508.633 307.106C513.632 332.606 515.848 362.831 508 388C507.78 388.713 507.561 389.427 507.334 390.162C499.802 413.771 484.703 432.236 462.938 444C454.581 448.314 445.787 451.234 436.75 453.75C436.061 453.949 435.373 454.148 434.663 454.353C420.243 458.121 404.958 458.298 390.146 458.227C388.458 458.226 386.771 458.227 385.083 458.228C380.57 458.229 376.057 458.217 371.544 458.203C366.802 458.19 362.06 458.189 357.318 458.187C348.369 458.181 339.42 458.164 330.471 458.144C320.27 458.122 310.069 458.111 299.868 458.101C278.912 458.08 257.956 458.045 237 458C236.999 457.456 236.997 456.912 236.996 456.351C236.958 443.088 236.899 429.825 236.816 416.561C236.777 410.147 236.744 403.733 236.729 397.319C236.714 391.127 236.679 384.935 236.632 378.742C236.617 376.382 236.609 374.022 236.608 371.662C236.606 368.351 236.579 365.041 236.546 361.73C236.551 360.759 236.556 359.787 236.561 358.786C236.446 351.225 234.467 344.891 229 339.438C211.003 322.734 184.544 320.956 161.215 320.991C160.049 320.992 158.884 320.993 157.683 320.995C156.355 320.997 156.355 320.997 155 321C154.999 320.276 154.997 319.553 154.996 318.807C154.958 301.179 154.899 283.551 154.816 265.923C154.776 257.398 154.744 248.873 154.729 240.348C154.716 232.915 154.689 225.482 154.645 218.049C154.623 214.116 154.607 210.183 154.608 206.249C154.609 202.542 154.591 198.835 154.559 195.127C154.546 193.128 154.553 191.13 154.561 189.131C154.458 180.217 152.998 172.338 146.777 165.531C131.136 152.055 110.788 149.199 91 147C91 124.89 91 102.78 91 80ZM314 186C309.837 190.593 310.725 196.176 311 202C309.928 201.897 308.855 201.794 307.75 201.688C299.166 201.718 290.854 206.143 284.75 211.98C277.114 220.793 274.412 229.82 274.633 241.371C275.696 251.877 281.113 260.177 289 267C295.678 271.394 302.975 274 311 274C311 286.21 311 298.42 311 311C300.318 308.626 300.318 308.626 296 304C293.925 300.147 292.895 296.573 292.125 292.312C291.445 289.079 291.011 288.013 288.812 285.375C285.028 283.525 283.011 283.833 279 285C276.377 286.289 276.377 286.289 275 289C273.38 297.987 276.593 306.899 281.688 314.25C288.418 322.506 296.456 327.452 307 328.688C308.332 328.802 309.666 328.91 311 329C310.965 329.652 310.93 330.305 310.895 330.977C310.726 336.407 310.769 340.384 314 345C316.525 347.002 317.76 347.01 321 346.875C324.437 345.873 325.792 344.78 328 342C329.005 338.985 329.103 336.958 329.062 333.812C329.053 332.911 329.044 332.01 329.035 331.082C329.024 330.395 329.012 329.708 329 329C329.773 328.902 330.547 328.804 331.344 328.703C342.479 327.105 350.46 323.625 358 315C364.271 304.767 366.956 294.99 364.352 283.02C360.901 272.565 354.658 265.213 345 260C339.13 257.076 336.039 257 329 257C329 244.46 329 231.92 329 219C341.368 222.71 341.368 222.71 345.688 229.75C346.793 232.487 347.392 234.757 347.938 237.625C348.544 240.524 349.027 242.041 350.688 244.562C354.041 246.647 356.126 246.612 360 246C363.144 244.274 363.144 244.274 365 241C366.697 232.725 363.759 224.546 359.492 217.516C354.023 209.935 346.226 204.112 337 202C334.275 201.79 331.739 201.853 329 202C329.035 201.264 329.07 200.528 329.105 199.77C329.501 192.309 329.501 192.309 326 186C320.948 182.427 319.052 182.427 314 186ZM478 350C476.019 352.972 475.689 354.006 475.324 357.395C475.221 358.261 475.119 359.127 475.013 360.02C474.905 360.942 474.798 361.863 474.688 362.812C472.573 378.912 467.741 394.358 454.762 405.09C440.765 414.771 425.269 419.076 408.432 420.23C403.912 420.582 400.648 421.044 397 424C395.336 427.323 395.336 427.323 395 431C396.524 434.609 397.716 435.811 401 438C423.244 440.391 447.606 432.696 465.188 419.188C481.613 405.409 490.875 386.28 493 365C493.621 357.706 493.621 357.706 491.438 350.875C487.267 347.667 482.399 346.741 478 350Z" fill="#0095FF"/>
<path d="M36 208C40.0379 208.808 42.8589 209.72 46.5625 211.312C73.9909 221.867 105.308 221.04 132.129 209.172C135 208 135 208 138 208C138 246.61 138 285.22 138 325C134.04 326.32 130.08 327.64 126 329C116.173 333.225 108.285 338.395 103.433 348.151C101.001 354.833 101.517 362.076 101.488 369.094C101.471 370.652 101.453 372.21 101.434 373.768C101.387 377.845 101.357 381.922 101.33 385.999C101.301 390.168 101.254 394.338 101.209 398.508C101.123 406.672 101.056 414.836 101 423C100.396 422.799 99.7924 422.597 99.1704 422.39C98.3708 422.123 97.5712 421.857 96.7473 421.582C95.9579 421.319 95.1685 421.056 94.3552 420.785C93.578 420.526 92.8008 420.267 92 420C91.2891 419.763 90.5782 419.526 89.8457 419.282C87.9629 418.657 86.0757 418.046 84.1875 417.438C83.5655 417.229 82.9436 417.021 82.3027 416.807C66.7668 411.836 52.569 413 36 413C36 345.35 36 277.7 36 208Z" fill="#0095FF"/>
<path d="M118 381C119.098 381.417 120.196 381.833 121.327 382.262C122.782 382.812 124.237 383.361 125.692 383.911C126.414 384.185 127.136 384.459 127.879 384.742C132.816 386.603 137.71 388.209 142.875 389.312C143.588 389.471 144.301 389.629 145.035 389.792C168.699 394.889 192.934 391.917 215.26 382.912C216.151 382.553 217.042 382.195 217.959 381.825C218.633 381.553 219.306 381.281 220 381C220.116 393.561 220.205 406.121 220.259 418.683C220.285 424.515 220.321 430.348 220.377 436.18C220.431 441.808 220.461 447.436 220.474 453.064C220.484 455.212 220.502 457.36 220.529 459.507C220.565 462.515 220.57 465.521 220.568 468.528C220.586 469.417 220.604 470.306 220.622 471.222C220.585 475.681 220.469 477.419 217.576 481.002C216.301 481.991 216.301 481.991 215 483C214.412 483.476 213.824 483.951 213.219 484.441C200.404 492.8 184.188 494.39 169.25 494.312C168.115 494.308 166.979 494.303 165.81 494.298C149.866 494.076 132.44 491.967 120.391 480.551C117.084 476.864 117.868 472.638 117.886 467.96C117.886 467.024 117.886 466.087 117.886 465.122C117.887 462.016 117.895 458.911 117.902 455.805C117.904 453.655 117.906 451.506 117.907 449.356C117.91 443.691 117.92 438.026 117.931 432.361C117.942 426.583 117.946 420.805 117.951 415.027C117.962 403.685 117.979 392.342 118 381Z" fill="#0095FF"/>
<path d="M331.25 1.49998C334.374 3.36095 337.081 5.68173 339.875 7.99998C346.058 13.1082 352.935 16.3279 361 17C361.703 17.0631 362.405 17.1263 363.129 17.1914C371.6 17.6129 379.668 15.2461 387.164 11.3594C390.927 9.55559 393.02 9.8944 397 11C400.115 13.1311 400.865 14.4024 401.699 18.0898C402.053 22.6845 401.44 26.4708 400.437 30.9375C400.255 31.7665 400.072 32.5955 399.884 33.4497C395.718 51.4574 388.205 66.7706 375 80C374.426 80.5852 373.853 81.1704 373.262 81.7734C365.554 89.0213 356.407 91.7785 346 92C346.241 91.503 346.482 91.0059 346.731 90.4939C351.901 79.8057 356.825 69.1197 361 58C361.34 57.1041 361.681 56.2082 362.031 55.2851C363.52 51.1427 364.806 47.4306 364 43C362.083 39.9166 362.083 39.9166 359 38C355.362 37.7459 355.362 37.7459 352 39C348.822 42.2745 347.741 46.3174 346.375 50.5625C341.684 64.4026 335.549 81.4508 325 92C321.5 92.771 318.49 92.8516 315 92C311.805 89.1914 310.016 85.7087 308 82C307.364 80.9223 306.729 79.8447 306.074 78.7344C300.916 69.775 297.292 60.3481 293.762 50.6523C291.256 43.336 291.256 43.336 286 38C282.389 38.1289 279.929 38.3034 277 40.5C274.251 47.3722 277.951 55.5175 280.5 62C281.022 63.3551 281.022 63.3551 281.555 64.7375C284.594 72.4137 288.284 79.6276 292.312 86.8242C294 90 294 90 294 92C280.533 91.4879 271.768 87.3289 262 78C259.077 74.8251 256.488 71.5233 254 68C253.479 67.2781 252.958 66.5562 252.422 65.8125C243.944 52.9618 235.704 31.4977 238 16C240.376 12.7156 242.054 11.3292 245.875 9.99998C249.061 9.99998 250.985 10.6724 253.828 12.0312C266.155 17.5296 276.135 18.5139 288.895 14.2656C293.417 12.4224 297.104 9.90438 301 6.99998C302.618 5.88586 304.243 4.7815 305.875 3.68748C306.594 3.19635 307.314 2.70521 308.055 2.1992C314.249 -1.61945 324.713 -1.54718 331.25 1.49998Z" fill="#0095FF"/>
<path d="M419 21C429.402 22.2849 438.626 28.5764 445.062 36.6875C452.004 46.3799 456.246 56.9523 455 69C453.213 79.2283 448.503 87.0499 442 95C442.563 95.1702 443.126 95.3403 443.706 95.5156C461.971 101.114 479.466 107.724 491 124C492.051 128.082 491.394 131.259 489.438 134.938C486.244 137.64 484.152 137.927 480 138C475.708 137.08 474.247 135.058 471.613 131.707C459.252 118.627 437.557 113.694 420.25 112.375C412.92 111.507 408.623 108.328 403.23 103.688C399.939 100.857 396.408 98.5987 392.688 96.375C391.598 95.7227 390.509 95.0705 389.387 94.3984C388.599 93.937 387.811 93.4755 387 93C387.33 92.01 387.66 91.02 388 90C389.088 90.0348 390.176 90.0696 391.297 90.1055C405.284 90.4233 416.677 89.0474 428 80C432.164 75.9965 434.061 71.3566 434.977 65.6875C435.032 59.3186 432.243 53.9381 428.875 48.6875C424.985 45.0516 420.654 42.5483 416 40C416.516 33.5015 417.467 27.3377 419 21Z" fill="#0095FF"/>
<path d="M132.875 173.875C136.268 176.809 137.594 179.454 138 184C136.872 188.607 134.513 190.611 130.688 193.125C109.092 205.029 78.753 204.413 55.4375 198.187C48.7528 196.109 41.6276 193.512 37 188C35.2216 181.723 35.2216 181.723 36.8594 178.098C43.5303 169.131 56.61 166.82 67 165C87.5872 162.023 114.939 161.723 132.875 173.875Z" fill="#0095FF"/>
<path d="M97.6172 440.57C99.8522 442.881 100.942 444.629 101.437 447.813C100.856 452.053 99.186 454.316 96 457C85.8355 463.986 71.1662 466.574 59 467C57.7973 467.052 56.5946 467.103 55.3555 467.156C37.7884 467.664 16.2283 466.537 1.99999 455C-0.464479 451.303 -0.7837 448.289 -1.41859e-05 444C5.57562 436.008 16.8654 432.845 26 431C47.9567 427.247 79.3588 425.423 97.6172 440.57Z" fill="#0095FF"/>
<path d="M189.574 47.6328C191.954 49.9147 192.05 51.3282 192.562 54.6875C192.517 57.4508 192.222 58.6992 190.566 60.9414C177.525 73.0903 156.442 74.351 139.426 74.1524C103.756 72.5661 103.756 72.5661 93 61.125C91 58 91 58 90.3125 55.0625C91.3404 50.4837 93.3529 47.9218 97 45C121.072 31.6508 167.161 29.7205 189.574 47.6328Z" fill="#0095FF"/>
<path d="M216.187 348.875C218.621 351.189 219.058 352.183 220.125 355.563C219.979 359.572 219.626 360.976 217 364C204.327 374.599 184.948 375.381 169.25 375.313C168.591 375.311 167.933 375.309 167.254 375.307C151.231 375.232 132.53 374.282 120.215 362.539C118.232 360.027 117.865 358.163 118 355C120.532 349.092 125.511 345.922 131.25 343.438C155.366 334.001 194.584 332.509 216.187 348.875Z" fill="#0095FF"/>
<path d="M1.10269e-05 473C4.25748 474.408 8.50842 475.827 12.7383 477.316C13.9178 477.728 15.0973 478.139 16.3125 478.562C17.4843 478.976 18.656 479.39 19.8633 479.816C44.3669 487.398 72.9835 484.356 96.2266 474.172C99 473 99 473 101 473C101.146 476.708 101.234 480.415 101.313 484.125C101.354 485.172 101.396 486.218 101.439 487.297C101.578 496.03 101.578 496.03 98.7578 499.578C81.9678 514.323 55.9664 513.003 35 512C22.9928 510.804 12.1647 506.91 2.19532 500.078C-1.25281 495.243 -0.531813 490.461 -0.312489 484.688C-0.28993 483.565 -0.267372 482.443 -0.24413 481.287C-0.185327 478.523 -0.103193 475.762 1.10269e-05 473Z" fill="#0095FF"/>
<path d="M329 274C335.598 274 338.08 274.972 343 279C347.543 284.825 348.833 289.76 348 297C346.205 302.753 343.157 306.789 338 310C333.545 310.495 333.545 310.495 329 311C329 298.79 329 286.58 329 274Z" fill="#0095FF"/>
<path d="M311 219C311 231.21 311 243.42 311 256C299.794 254.755 299.794 254.755 295 249C291.94 243.768 291.101 238.936 292 233C293.876 226.781 297.332 223.064 303 220C306 219 306 219 311 219Z" fill="#0095FF"/>
</g>
<defs>
<clipPath id="clip0_9170_8">
<rect width="512" height="512" fill="white"/>
</clipPath>
</defs>
</svg>
