<svg width="512" height="512" viewBox="0 0 512 512" fill="none" xmlns="http://www.w3.org/2000/svg">
<path d="M368.402 119.492C369.277 119.481 370.152 119.469 371.053 119.458C372.005 119.466 372.957 119.474 373.937 119.482C374.946 119.475 375.955 119.468 376.994 119.461C380.329 119.444 383.664 119.455 387 119.469C389.316 119.466 391.633 119.462 393.949 119.457C398.805 119.451 403.66 119.46 408.516 119.479C414.744 119.501 420.971 119.488 427.199 119.464C431.982 119.45 436.766 119.454 441.549 119.465C443.846 119.467 446.142 119.464 448.439 119.455C451.647 119.445 454.854 119.46 458.062 119.482C459.014 119.474 459.966 119.466 460.947 119.458C461.822 119.469 462.696 119.48 463.598 119.492C464.356 119.494 465.114 119.495 465.895 119.497C468.909 120.217 470.048 121.626 472 124C472.497 126.536 472.497 126.536 472.492 129.459C472.5 130.574 472.508 131.69 472.516 132.839C472.505 134.065 472.493 135.291 472.481 136.554C472.484 137.856 472.488 139.157 472.491 140.499C472.5 144.116 472.484 147.732 472.464 151.349C472.447 155.248 472.453 159.147 472.456 163.046C472.458 169.803 472.445 176.559 472.423 183.315C472.39 193.084 472.38 202.852 472.375 212.621C472.366 228.469 472.34 244.318 472.302 260.166C472.265 275.562 472.237 290.959 472.22 306.355C472.219 307.304 472.218 308.253 472.217 309.231C472.211 313.991 472.206 318.75 472.201 323.51C472.16 363.007 472.089 402.503 472 442C473.036 441.983 474.073 441.965 475.141 441.947C476.51 441.933 477.88 441.92 479.25 441.906C480.273 441.887 480.273 441.887 481.316 441.868C487.014 441.827 489.645 442.371 494 446C498.735 450.764 502.11 454.294 502.145 461.256C502.152 462.11 502.158 462.965 502.165 463.845C502.166 465.223 502.166 465.223 502.168 466.629C502.171 467.574 502.175 468.52 502.178 469.494C502.183 471.492 502.185 473.49 502.185 475.488C502.187 478.554 502.206 481.62 502.225 484.686C502.228 486.625 502.229 488.564 502.23 490.504C502.238 491.425 502.245 492.346 502.252 493.294C502.249 494.145 502.246 494.996 502.243 495.873C502.244 496.624 502.246 497.374 502.247 498.147C502 500 502 500 500 502C497.345 502.197 494.794 502.268 492.138 502.252C491.313 502.255 490.487 502.258 489.636 502.26C486.84 502.268 484.043 502.261 481.247 502.254C479.233 502.256 477.22 502.259 475.207 502.263C469.651 502.272 464.096 502.268 458.54 502.261C452.558 502.257 446.576 502.264 440.593 502.269C429.543 502.278 418.493 502.277 407.443 502.272C397.237 502.267 387.03 502.265 376.823 502.268C376.147 502.268 375.471 502.268 374.774 502.268C372.03 502.269 369.286 502.269 366.542 502.27C340.779 502.276 315.017 502.271 289.255 502.26C266.349 502.25 243.443 502.251 220.537 502.261C194.823 502.271 169.109 502.276 143.395 502.27C140.655 502.269 137.916 502.268 135.177 502.268C134.502 502.267 133.828 502.267 133.133 502.267C122.93 502.265 112.728 502.268 102.526 502.273C90.9296 502.278 79.3334 502.277 67.7371 502.266C61.8149 502.261 55.8928 502.259 49.9707 502.265C44.5575 502.271 39.1444 502.268 33.7313 502.257C31.765 502.255 29.7986 502.256 27.8323 502.261C25.1754 502.267 22.5187 502.261 19.8618 502.252C19.0847 502.256 18.3076 502.261 17.5069 502.266C12.2283 502.228 12.2283 502.228 9.99997 500C9.73254 498.174 9.73254 498.174 9.70944 495.937C9.69668 495.099 9.68392 494.26 9.67078 493.397C9.66855 492.489 9.66633 491.58 9.66403 490.645C9.65405 489.242 9.65405 489.242 9.64386 487.811C9.63372 485.828 9.62904 483.845 9.62936 481.862C9.62501 478.842 9.58876 475.823 9.55075 472.803C9.54488 470.875 9.54091 468.947 9.53903 467.02C9.52466 466.121 9.51029 465.223 9.49548 464.298C9.54592 457.298 11.1692 453.032 16.0351 447.82C16.7041 447.261 17.3732 446.701 18.0625 446.125C18.7341 445.55 19.4057 444.975 20.0976 444.383C24.0361 441.52 28.0405 441.881 32.6875 441.938C33.3894 441.942 34.0913 441.947 34.8144 441.951C36.543 441.963 38.2715 441.981 40 442C39.9963 441.189 39.9926 440.379 39.9888 439.544C39.9005 419.831 39.8343 400.118 39.7927 380.405C39.7721 370.872 39.7439 361.34 39.6982 351.807C39.6584 343.499 39.6326 335.191 39.6236 326.884C39.6184 322.484 39.6061 318.084 39.5771 313.684C39.5499 309.544 39.5415 305.404 39.5475 301.264C39.5464 299.743 39.5384 298.223 39.5231 296.702C39.5033 294.627 39.508 292.554 39.519 290.479C39.5153 289.318 39.5116 288.156 39.5078 286.96C40.1124 283.324 41.0381 282.146 44 280C46.1052 279.497 46.1052 279.497 48.4023 279.492C49.2771 279.481 50.1519 279.469 51.0532 279.458C52.005 279.466 52.9568 279.474 53.9375 279.482C54.946 279.475 55.9545 279.468 56.9936 279.461C60.3294 279.444 63.6642 279.455 67 279.469C69.3164 279.466 71.6328 279.462 73.9492 279.457C78.8048 279.451 83.6601 279.46 88.5156 279.479C94.7436 279.501 100.971 279.488 107.199 279.464C111.982 279.45 116.766 279.454 121.549 279.465C123.846 279.467 126.142 279.464 128.439 279.455C131.647 279.445 134.854 279.46 138.062 279.482C139.014 279.474 139.966 279.466 140.947 279.458C141.822 279.469 142.696 279.48 143.598 279.492C144.356 279.494 145.114 279.495 145.895 279.497C148.976 280.233 150.128 281.469 152 284C152.492 286.96 152.492 286.96 152.481 290.479C152.484 291.128 152.488 291.777 152.491 292.445C152.498 294.616 152.476 296.787 152.454 298.958C152.453 300.515 152.454 302.072 152.456 303.63C152.457 307.857 152.433 312.083 152.406 316.31C152.381 320.728 152.378 325.146 152.373 329.563C152.361 337.928 152.328 346.293 152.288 354.659C152.243 364.182 152.221 373.705 152.201 383.229C152.159 402.819 152.086 422.41 152 442C167.84 442 183.68 442 200 442C199.979 434.811 199.958 427.622 199.936 420.216C199.872 397.226 199.828 374.235 199.796 351.245C199.791 347.675 199.786 344.105 199.78 340.535C199.779 339.824 199.778 339.114 199.777 338.381C199.76 326.867 199.728 315.353 199.691 303.839C199.654 292.028 199.632 280.217 199.624 268.406C199.619 261.771 199.606 255.135 199.577 248.5C199.55 242.258 199.542 236.017 199.548 229.776C199.546 227.481 199.538 225.187 199.523 222.892C199.503 219.767 199.508 216.642 199.519 213.516C199.507 212.602 199.496 211.688 199.484 210.746C199.541 204.67 199.541 204.67 201.755 201.437C204.237 199.848 205.482 199.498 208.402 199.492C209.277 199.481 210.152 199.469 211.053 199.458C212.005 199.466 212.957 199.474 213.937 199.482C214.946 199.475 215.955 199.468 216.994 199.461C220.329 199.444 223.664 199.455 227 199.469C229.316 199.466 231.633 199.462 233.949 199.457C238.805 199.451 243.66 199.46 248.516 199.479C254.744 199.501 260.971 199.488 267.199 199.464C271.982 199.45 276.766 199.454 281.549 199.465C283.846 199.467 286.142 199.464 288.439 199.455C291.647 199.445 294.854 199.46 298.062 199.482C299.49 199.47 299.49 199.47 300.947 199.458C302.259 199.475 302.259 199.475 303.598 199.492C304.356 199.494 305.114 199.495 305.895 199.497C309.101 200.263 310.13 201.269 312 204C312.585 207.171 312.522 210.3 312.481 213.516C312.484 214.492 312.488 215.467 312.491 216.472C312.498 219.749 312.476 223.025 312.454 226.302C312.453 228.647 312.454 230.993 312.456 233.338C312.457 239.714 312.433 246.089 312.406 252.465C312.383 258.45 312.379 264.435 312.375 270.421C312.366 282.276 312.34 294.131 312.302 305.986C312.265 317.503 312.237 329.019 312.22 340.535C312.219 341.245 312.218 341.955 312.217 342.686C312.211 346.247 312.206 349.808 312.201 353.37C312.16 382.913 312.086 412.457 312 442C327.84 442 343.68 442 360 442C359.991 438.025 359.982 434.05 359.973 429.954C359.894 393.526 359.834 357.098 359.796 320.67C359.791 315.899 359.786 311.127 359.78 306.355C359.779 305.405 359.778 304.456 359.777 303.477C359.76 288.083 359.728 272.689 359.691 257.294C359.654 241.506 359.632 225.717 359.624 209.929C359.618 200.182 359.601 190.435 359.568 180.687C359.547 174.009 359.541 167.33 359.546 160.652C359.549 156.795 359.545 152.939 359.523 149.082C359.5 144.906 359.508 140.73 359.519 136.554C359.507 135.328 359.496 134.102 359.484 132.839C359.492 131.724 359.5 130.608 359.508 129.459C359.506 128.494 359.505 127.53 359.503 126.536C360.462 121.644 363.592 119.502 368.402 119.492Z" fill="#0095FF"/>
<path d="M259 10C261.611 11.8008 261.611 11.8008 264.031 14.3125C264.925 15.2239 265.818 16.1352 266.738 17.0742C267.659 18.0492 268.58 19.0245 269.5 20C270.411 20.9346 271.323 21.8691 272.262 22.832C276.768 27.4816 281.114 32.2346 285.342 37.1367C288.249 40.403 291.379 43.44 294.5 46.5C298.859 50.8129 303.096 55.1272 307.043 59.8242C310.619 63.7999 314.474 67.5111 318.291 71.2541C318.884 71.838 319.476 72.4219 320.086 73.0234C320.623 73.5486 321.159 74.0737 321.712 74.6147C323.713 76.767 323.997 77.9646 324.25 80.9375C324 84 324 84 322.968 85.6731C319.93 87.7215 316.803 87.3681 313.27 87.293C312.519 87.2887 311.769 87.2845 310.996 87.2801C308.601 87.2633 306.207 87.2257 303.812 87.1875C302.188 87.1725 300.564 87.1588 298.939 87.1465C294.959 87.1134 290.98 87.0616 287 87C287.004 87.7598 287.009 88.5195 287.013 89.3023C287.053 96.4538 287.084 103.605 287.104 110.757C287.114 114.433 287.128 118.11 287.151 121.787C287.173 125.334 287.185 128.88 287.19 132.427C287.193 133.782 287.201 135.137 287.211 136.492C287.226 138.385 287.227 140.279 287.227 142.173C287.231 143.253 287.236 144.332 287.241 145.444C287 148 287 148 285 150C282.54 150.274 282.54 150.274 279.405 150.306C278.233 150.322 277.062 150.338 275.855 150.355C274.584 150.36 273.313 150.366 272.004 150.371C270.054 150.385 270.054 150.385 268.066 150.398C265.313 150.415 262.56 150.423 259.806 150.426C256.277 150.431 252.749 150.469 249.221 150.514C245.857 150.551 242.493 150.553 239.129 150.559C237.86 150.578 236.591 150.598 235.284 150.618C234.11 150.612 232.935 150.606 231.725 150.599C230.689 150.604 229.654 150.61 228.587 150.615C226 150 226 150 224.163 147.831C222.871 144.686 222.637 142.5 222.659 139.108C222.66 137.367 222.66 137.367 222.66 135.59C222.676 134.348 222.691 133.105 222.707 131.824C222.711 130.544 222.716 129.264 222.72 127.945C222.731 124.553 222.761 121.162 222.794 117.77C222.825 114.304 222.838 110.839 222.854 107.373C222.887 100.582 222.937 93.791 223 87C222.016 87.0157 221.032 87.0314 220.018 87.0476C216.368 87.1019 212.717 87.1364 209.066 87.1648C207.486 87.1799 205.905 87.2004 204.325 87.2263C202.054 87.2627 199.783 87.2797 197.512 87.293C196.452 87.3162 196.452 87.3162 195.371 87.3399C190.488 87.3416 190.488 87.3416 188.07 85.6497C186.241 82.8289 186.376 81.3058 187 78C191.031 71.9338 196.975 66.9657 202.156 61.9062C204.327 59.7415 206.343 57.479 208.344 55.1562C212.655 50.1769 217.34 45.6093 222.039 41C225.931 37.1529 229.616 33.2089 233.191 29.0664C236.515 25.2685 239.989 21.6243 243.5 18C244.221 17.2253 244.941 16.4505 245.684 15.6523C246.396 14.9214 247.109 14.1905 247.844 13.4375C248.475 12.7762 249.106 12.1149 249.756 11.4336C253.025 9.34541 255.198 9.48192 259 10Z" fill="#0095FF"/>
<path d="M99 10C101.611 11.8008 101.611 11.8008 104.031 14.3125C104.925 15.2239 105.818 16.1352 106.738 17.0742C107.659 18.0492 108.58 19.0245 109.5 20C110.411 20.9346 111.323 21.8691 112.262 22.832C116.768 27.4816 121.114 32.2346 125.342 37.1367C128.249 40.403 131.379 43.44 134.5 46.5C138.859 50.8129 143.096 55.1272 147.043 59.8242C150.619 63.7999 154.474 67.5111 158.291 71.2541C158.884 71.838 159.476 72.4219 160.086 73.0234C160.623 73.5486 161.159 74.0737 161.712 74.6147C163.713 76.767 163.997 77.9646 164.25 80.9375C164 84 164 84 162.968 85.6731C159.93 87.7215 156.803 87.3681 153.27 87.293C152.519 87.2887 151.769 87.2845 150.996 87.2801C148.601 87.2633 146.207 87.2257 143.812 87.1875C142.188 87.1725 140.564 87.1588 138.939 87.1465C134.959 87.1134 130.98 87.0616 127 87C127.004 87.7598 127.009 88.5195 127.013 89.3023C127.053 96.4538 127.084 103.605 127.104 110.757C127.114 114.433 127.128 118.11 127.151 121.787C127.173 125.334 127.185 128.88 127.19 132.427C127.193 133.782 127.201 135.137 127.211 136.492C127.226 138.385 127.227 140.279 127.227 142.173C127.231 143.253 127.236 144.332 127.241 145.444C127 148 127 148 125 150C122.54 150.274 122.54 150.274 119.405 150.306C118.233 150.322 117.062 150.338 115.855 150.355C114.584 150.36 113.313 150.366 112.004 150.371C110.054 150.385 110.054 150.385 108.066 150.398C105.313 150.415 102.56 150.423 99.8064 150.426C96.2773 150.431 92.7494 150.469 89.2207 150.514C85.8568 150.551 82.493 150.553 79.1289 150.559C77.8601 150.578 76.5913 150.598 75.2841 150.618C74.1095 150.612 72.935 150.606 71.7248 150.599C70.6894 150.604 69.654 150.61 68.5872 150.615C66 150 66 150 64.1635 147.831C62.871 144.686 62.6373 142.5 62.6594 139.108C62.6598 137.367 62.6598 137.367 62.6601 135.59C62.6756 134.348 62.6911 133.105 62.707 131.824C62.7113 130.544 62.7155 129.264 62.7199 127.945C62.7313 124.553 62.7607 121.162 62.794 117.77C62.8248 114.304 62.8384 110.839 62.8535 107.373C62.8866 100.582 62.9368 93.791 63 87C62.016 87.0157 61.0321 87.0314 60.0183 87.0476C56.3675 87.1019 52.7168 87.1364 49.0657 87.1648C47.4855 87.1799 45.9054 87.2004 44.3254 87.2263C42.0541 87.2627 39.7833 87.2797 37.5117 87.293C36.4522 87.3162 36.4522 87.3162 35.3713 87.3399C30.4883 87.3416 30.4883 87.3416 28.0696 85.6497C26.2407 82.8289 26.3763 81.3058 27 78C31.0308 71.9338 36.9749 66.9657 42.1562 61.9062C44.3272 59.7415 46.3431 57.479 48.3437 55.1562C52.6554 50.1769 57.3397 45.6093 62.0391 41C65.9312 37.1529 69.6164 33.2089 73.1914 29.0664C76.5155 25.2685 79.9887 21.6243 83.5 18C84.2206 17.2253 84.9412 16.4505 85.6836 15.6523C86.3964 14.9214 87.1093 14.1905 87.8437 13.4375C88.4747 12.7762 89.1057 12.1149 89.7559 11.4336C93.0247 9.34541 95.198 9.48192 99 10Z" fill="#0095FF"/>
</svg>
