<svg id="Шар_1" data-name="Шар 1" xmlns="http://www.w3.org/2000/svg" viewBox="0 0 640 280.23">
  <defs>
    <style>
      .cls-1 {
        fill: #2F303A;
      }

      .cls-2 {
        fill: #fff;
      }

      .cls-3 {
        fill: none;
      }

      .cls-4 {
        fill: #2F303A;
      }
    </style>
  </defs>
  <g>
    <rect class="cls-1" width="640" height="280.23"/>
    <g>
      <g>
        <path class="cls-2" d="M256.53,34.34V30h38.85v4.39h-17V83.52h-4.89V34.34Z"/>
        <path class="cls-2" d="M311.18,84.43A15.34,15.34,0,0,1,304.53,83a11.45,11.45,0,0,1-4.78-4.14A11.65,11.65,0,0,1,298,72.3a10.31,10.31,0,0,1,1.12-5,9.18,9.18,0,0,1,3.19-3.34,17.61,17.61,0,0,1,4.89-2.07,45.16,45.16,0,0,1,6.23-1.18q3.38-.42,5.72-.73a10.56,10.56,0,0,0,3.57-1,2.34,2.34,0,0,0,1.23-2.2v-.94a8.61,8.61,0,0,0-2.45-6.48Q319,47,314.45,47a12.11,12.11,0,0,0-7.08,1.91,10.62,10.62,0,0,0-3.83,4.5l-4.42-1.59a13,13,0,0,1,3.77-5.27,15,15,0,0,1,5.38-2.85,21.19,21.19,0,0,1,6.05-.88,20.6,20.6,0,0,1,4.8.6,13.94,13.94,0,0,1,4.64,2.08,10.86,10.86,0,0,1,3.48,4.11,14.63,14.63,0,0,1,1.33,6.65V83.52h-4.65V77.16h-.29a12.94,12.94,0,0,1-6.62,6.2A14.55,14.55,0,0,1,311.18,84.43Zm.62-4.26a12.17,12.17,0,0,0,6.44-1.65,11.46,11.46,0,0,0,4.2-4.38,12.52,12.52,0,0,0,1.48-6V62.3a4.64,4.64,0,0,1-1.74.89,23.8,23.8,0,0,1-2.8.7q-1.59.3-3.15.51l-2.83.36a26.36,26.36,0,0,0-5.81,1.31,8.36,8.36,0,0,0-3.68,2.45,6,6,0,0,0-1.29,4,6.73,6.73,0,0,0,2.62,5.66A10.5,10.5,0,0,0,311.8,80.17Z"/>
        <path class="cls-2" d="M340.94,83.52V43.34h4.53v6.17h.34a10,10,0,0,1,4.2-4.9,12.53,12.53,0,0,1,6.79-1.87l1.28,0,1.18.06v4.73l-1.1-.16a13,13,0,0,0-1.7-.1,11.57,11.57,0,0,0-5.59,1.32,9.88,9.88,0,0,0-5.27,9V83.52Z"/>
        <path class="cls-2" d="M368.17,83.52V30h4.9V79.12H398.6v4.4Z"/>
        <path class="cls-2" d="M434.17,68.16V43.34h4.66V83.52h-4.66V76.85h-.36A12.39,12.39,0,0,1,429.33,82,13.1,13.1,0,0,1,421.85,84,13.59,13.59,0,0,1,415,82.35a11.8,11.8,0,0,1-4.68-4.95,17.31,17.31,0,0,1-1.7-8v-26h4.66V69.08a10.41,10.41,0,0,0,2.77,7.57,9.48,9.48,0,0,0,7.12,2.87,11.23,11.23,0,0,0,5.23-1.31,10.81,10.81,0,0,0,4.13-3.83A11.31,11.31,0,0,0,434.17,68.16Z"/>
        <path class="cls-2" d="M454,43.34l10.36,17.13,10.36-17.13h5.41L467.21,63.43l12.92,20.09h-5.41L464.36,66.93,454,83.52h-5.39l12.77-20.09L448.61,43.34Z"/>
        <path class="cls-2" d="M259.78,166.53V113h31.07v4.4H264.67v20.16H289.2v4.4H264.67v20.22h26.71v4.39Z"/>
        <path class="cls-2" d="M307.17,141.42v25.11h-4.65V126.35H307v6.31h.42a11.29,11.29,0,0,1,4.41-5,13.74,13.74,0,0,1,7.42-1.87,14.47,14.47,0,0,1,7.12,1.69,11.65,11.65,0,0,1,4.79,5,17.15,17.15,0,0,1,1.71,8v26h-4.65V140.79A10.84,10.84,0,0,0,325.5,133a9.75,9.75,0,0,0-7.39-2.87,11.52,11.52,0,0,0-5.63,1.35,9.89,9.89,0,0,0-3.88,3.92A12.19,12.19,0,0,0,307.17,141.42Z"/>
        <path class="cls-2" d="M360.54,182.44a22.38,22.38,0,0,1-7.2-1.06,15.71,15.71,0,0,1-5.2-2.89,13.92,13.92,0,0,1-3.3-4.11l3.82-2.51a14.61,14.61,0,0,0,2.32,3,11.16,11.16,0,0,0,3.79,2.43,15,15,0,0,0,5.77,1,13.25,13.25,0,0,0,8.62-2.67c2.18-1.77,3.28-4.54,3.28-8.29v-9H372a15.61,15.61,0,0,1-2.33,3.65,11.89,11.89,0,0,1-4,3,13.69,13.69,0,0,1-6.06,1.21,15.53,15.53,0,0,1-8.54-2.39,16.1,16.1,0,0,1-5.86-6.81,24.23,24.23,0,0,1-2.13-10.58,26.1,26.1,0,0,1,2.08-10.73,17.13,17.13,0,0,1,5.82-7.22,15,15,0,0,1,8.71-2.58,13,13,0,0,1,6.12,1.29,11.8,11.8,0,0,1,3.91,3.2A19.56,19.56,0,0,1,372.1,134h.47v-7.67h4.55v41.23A15,15,0,0,1,375,176a13,13,0,0,1-5.91,4.87A21.58,21.58,0,0,1,360.54,182.44Zm-.32-20.59a11.46,11.46,0,0,0,6.62-1.87,11.79,11.79,0,0,0,4.21-5.37,21.53,21.53,0,0,0,1.47-8.35,22.68,22.68,0,0,0-1.44-8.36,13.16,13.16,0,0,0-4.17-5.75,10.61,10.61,0,0,0-6.69-2.11,10.75,10.75,0,0,0-6.8,2.17,13.27,13.27,0,0,0-4.18,5.85,22.72,22.72,0,0,0-1.42,8.2,21.28,21.28,0,0,0,1.44,8.12,12.31,12.31,0,0,0,4.21,5.5A11.38,11.38,0,0,0,360.22,161.85Z"/>
        <path class="cls-2" d="M391.9,119.45a3.44,3.44,0,0,1-2.46-1,3.25,3.25,0,0,1,0-4.74,3.57,3.57,0,0,1,4.91,0,3.25,3.25,0,0,1,0,4.74A3.46,3.46,0,0,1,391.9,119.45Zm-2.38,47.08V126.35h4.68v40.18Z"/>
        <path class="cls-2" d="M411.2,141.42v25.11h-4.65V126.35h4.52v6.31h.42a11.29,11.29,0,0,1,4.41-5,13.74,13.74,0,0,1,7.42-1.87,14.5,14.5,0,0,1,7.12,1.69,11.65,11.65,0,0,1,4.79,5,17.15,17.15,0,0,1,1.71,8v26h-4.65V140.79a10.84,10.84,0,0,0-2.76-7.82,9.76,9.76,0,0,0-7.39-2.87,11.45,11.45,0,0,0-5.62,1.35,9.91,9.91,0,0,0-3.89,3.92A12.19,12.19,0,0,0,411.2,141.42Z"/>
        <path class="cls-2" d="M465.48,167.37a17.68,17.68,0,0,1-9.73-2.63,17.26,17.26,0,0,1-6.34-7.3,24.63,24.63,0,0,1-2.24-10.76,24.93,24.93,0,0,1,2.24-10.79,18,18,0,0,1,6.2-7.4,16,16,0,0,1,9.17-2.68,17.14,17.14,0,0,1,6.3,1.18,15.9,15.9,0,0,1,5.46,3.64,17.44,17.44,0,0,1,3.83,6.15,24.55,24.55,0,0,1,1.41,8.75v2.3H450.39v-4.11H477a15.3,15.3,0,0,0-1.56-7,12.29,12.29,0,0,0-4.31-4.9,12.12,12.12,0,0,0-13.1.23,14,14,0,0,0-4.53,5.39,16.75,16.75,0,0,0-1.67,7.33v2.45a19.58,19.58,0,0,0,1.67,8.36,12.7,12.7,0,0,0,4.72,5.53,14.39,14.39,0,0,0,12.25,1.08,10.84,10.84,0,0,0,3.64-2.4,10.6,10.6,0,0,0,2.24-3.31l4.42,1.44a13,13,0,0,1-3,4.69,15.44,15.44,0,0,1-5.18,3.44A18.4,18.4,0,0,1,465.48,167.37Z"/>
        <path class="cls-2" d="M492,166.53V126.35h4.52v6.18h.34a10.07,10.07,0,0,1,4.2-4.91,12.62,12.62,0,0,1,6.79-1.87l1.28,0,1.18,0v4.74l-1.1-.16a12.89,12.89,0,0,0-1.7-.11,11.49,11.49,0,0,0-5.59,1.33,9.85,9.85,0,0,0-5.27,9v25.95Z"/>
        <path class="cls-2" d="M520.7,119.45a3.44,3.44,0,0,1-2.46-1,3.24,3.24,0,0,1,0-4.74,3.55,3.55,0,0,1,4.9,0,3.25,3.25,0,0,1,0,4.74A3.46,3.46,0,0,1,520.7,119.45Zm-2.38,47.08V126.35H523v40.18Z"/>
        <path class="cls-2" d="M540,141.42v25.11h-4.65V126.35h4.52v6.31h.42a11.35,11.35,0,0,1,4.41-5,13.74,13.74,0,0,1,7.42-1.87,14.47,14.47,0,0,1,7.12,1.69,11.6,11.6,0,0,1,4.79,5,17,17,0,0,1,1.72,8v26h-4.66V140.79a10.84,10.84,0,0,0-2.76-7.82,9.75,9.75,0,0,0-7.39-2.87,11.45,11.45,0,0,0-5.62,1.35,9.91,9.91,0,0,0-3.89,3.92A12.19,12.19,0,0,0,540,141.42Z"/>
        <path class="cls-2" d="M593.37,182.44a22.38,22.38,0,0,1-7.2-1.06,15.71,15.71,0,0,1-5.2-2.89,13.92,13.92,0,0,1-3.3-4.11l3.82-2.51a14.61,14.61,0,0,0,2.32,3,11.26,11.26,0,0,0,3.79,2.43,15,15,0,0,0,5.77,1,13.23,13.23,0,0,0,8.62-2.67c2.19-1.77,3.28-4.54,3.28-8.29v-9h-.42a15.61,15.61,0,0,1-2.33,3.65,11.89,11.89,0,0,1-4,3,13.69,13.69,0,0,1-6.06,1.21,15.48,15.48,0,0,1-8.53-2.39,16,16,0,0,1-5.86-6.81A24.09,24.09,0,0,1,576,146.34a26.1,26.1,0,0,1,2.08-10.73,17.13,17.13,0,0,1,5.82-7.22,15,15,0,0,1,8.71-2.58,13,13,0,0,1,6.12,1.29,11.94,11.94,0,0,1,3.92,3.2,20,20,0,0,1,2.31,3.72h.47v-7.67H610v41.23a15,15,0,0,1-2.17,8.4,13,13,0,0,1-5.91,4.87A21.54,21.54,0,0,1,593.37,182.44Zm-.32-20.59a11.44,11.44,0,0,0,6.62-1.87,11.79,11.79,0,0,0,4.21-5.37,21.53,21.53,0,0,0,1.47-8.35,22.68,22.68,0,0,0-1.44-8.36,13.16,13.16,0,0,0-4.17-5.75,10.59,10.59,0,0,0-6.69-2.11,10.75,10.75,0,0,0-6.8,2.17,13.27,13.27,0,0,0-4.18,5.85,22.72,22.72,0,0,0-1.41,8.2,21.29,21.29,0,0,0,1.43,8.12,12.26,12.26,0,0,0,4.22,5.5A11.33,11.33,0,0,0,593.05,161.85Z"/>
        <path class="cls-2" d="M259.78,249.55V196h4.89v49.17H290.2v4.4Z"/>
        <path class="cls-2" d="M301.21,249.55V196h4.89v49.17h25.53v4.4Z"/>
        <path class="cls-2" d="M382.51,212.72h-4.92a15.45,15.45,0,0,0-2-5.09,16.09,16.09,0,0,0-8.44-6.81,17.27,17.27,0,0,0-5.88-1,16.93,16.93,0,0,0-9.25,2.64,18.54,18.54,0,0,0-6.67,7.76,32.68,32.68,0,0,0,0,25.07,18.45,18.45,0,0,0,6.67,7.73,17,17,0,0,0,9.25,2.63,17.52,17.52,0,0,0,5.88-1,16.41,16.41,0,0,0,4.87-2.71,15.69,15.69,0,0,0,5.54-9.19h4.92a21.45,21.45,0,0,1-2.44,6.86,20.69,20.69,0,0,1-10.9,9.28,22.38,22.38,0,0,1-7.87,1.33,21.52,21.52,0,0,1-12-3.39,22.8,22.8,0,0,1-8.2-9.56,37.22,37.22,0,0,1,0-29.14,22.92,22.92,0,0,1,8.2-9.56,21.52,21.52,0,0,1,12-3.39,22.6,22.6,0,0,1,7.87,1.33,20.17,20.17,0,0,1,6.34,3.71,21.06,21.06,0,0,1,4.56,5.56A21.3,21.3,0,0,1,382.51,212.72Z"/>
      </g>
      <g>
        <g>
          <polygon class="cls-3" points="192.24 60.89 192.24 217.19 192.17 217.19 223.8 248.69 223.8 31.56 31.61 31.56 63.59 59.85 192.24 60.89"/>
          <path class="cls-2" d="M223.8,249.83a1.18,1.18,0,0,1-.81-.33L191.37,218a1.12,1.12,0,0,1-.27-1.19V62L63.59,61a1.16,1.16,0,0,1-.77-.3l-32-28.29a1.16,1.16,0,0,1-.29-1.26,1.13,1.13,0,0,1,1.06-.72H223.8a1.14,1.14,0,0,1,1.14,1.14V248.69a1.15,1.15,0,0,1-.7,1.05A1.12,1.12,0,0,1,223.8,249.83Zm-30.42-33,29.28,29.15V32.7H34.55L64,58.71l128.2,1a1.14,1.14,0,0,1,1.14,1.14Z"/>
        </g>
        <g>
          <polygon class="cls-3" points="63.25 41.1 63.58 81.75 116.26 127.14 63.25 193.1 63.17 217.19 84.37 217.19 140.18 147.75 192.24 192.58 192.24 150.93 63.25 41.1"/>
          <path class="cls-2" d="M84.37,218.33H63.17A1.14,1.14,0,0,1,62,217.19l.08-24.1a1.1,1.1,0,0,1,.25-.71l52.32-65.1L62.83,82.62a1.17,1.17,0,0,1-.4-.86l-.32-40.65a1.13,1.13,0,0,1,.65-1,1.15,1.15,0,0,1,1.23.17L193,150.06a1.15,1.15,0,0,1,.4.87v41.65a1.15,1.15,0,0,1-1.89.87l-51.16-44.07L85.26,217.91A1.13,1.13,0,0,1,84.37,218.33Zm-20.05-2.28h19.5l55.47-69a1.17,1.17,0,0,1,.79-.42,1.15,1.15,0,0,1,.85.27L191.1,190.1V151.46L64.32,43.53V80.82L117,126.27a1.14,1.14,0,0,1,.15,1.58L64.39,193.5Z"/>
        </g>
        <g>
          <polygon class="cls-2" points="223.8 248.69 223.8 248.69 192.17 217.19 63.17 217.19 63.63 63.12 63.25 41.1 51.99 31.56 31.61 31.56 31.61 248.75 223.8 248.75 223.87 248.75 223.8 248.69"/>
          <path class="cls-2" d="M223.87,249.9H31.61a1.15,1.15,0,0,1-1.14-1.15V31.56a1.14,1.14,0,0,1,1.14-1.14H52a1.08,1.08,0,0,1,.73.27L64,40.23a1.19,1.19,0,0,1,.41.85l-.07,175H192.17a1.18,1.18,0,0,1,.81.33l31.62,31.5h0l.06.07a1.12,1.12,0,0,1,.25,1.24A1.14,1.14,0,0,1,223.87,249.9ZM32.76,247.61H221.1l-29.4-29.28H63.17A1.14,1.14,0,0,1,62,217.19l.08-175.55L51.57,32.7H32.76Z"/>
        </g>
      </g>
      <path class="cls-2" d="M63.57,219.25a1.16,1.16,0,0,1-.89-1.89l75.65-92.72-75-63.88a1.15,1.15,0,0,1-.13-1.63A1.14,1.14,0,0,1,64.78,59l75.91,64.61a1.16,1.16,0,0,1,.14,1.61l-76.36,93.6A1.16,1.16,0,0,1,63.57,219.25Z"/>
    </g>
    <path class="cls-4" d="M48.67,232.78V47.59l15.77,14.2-.06-3.16L48.29,44.14a1.16,1.16,0,0,0-1.93.85v189a1.15,1.15,0,0,0,1.16,1.15H211.76l-2.32-2.31Z"/>
  </g>
</svg>
